<?xml version="1.0" standalone="no"?>
<!DOCTYPE svg PUBLIC "-//W3C//DTD SVG 20010904//EN"
 "http://www.w3.org/TR/2001/REC-SVG-20010904/DTD/svg10.dtd">
<svg version="1.0" xmlns="http://www.w3.org/2000/svg"
 width="300.000000pt" height="300.000000pt" viewBox="0 0 300.000000 300.000000"
 preserveAspectRatio="xMidYMid meet">
<metadata>
Created by potrace 1.11, written by Peter Selinger 2001-2013
</metadata>
<g transform="translate(0.000000,300.000000) scale(0.100000,-0.100000)"
fill="#000000" stroke="none">
<path d="M1458 2902 c-53 -54 -82 -177 -92 -385 -2 -37 -5 -70 -8 -72 -2 -2
-40 4 -84 14 -43 11 -115 26 -159 35 -44 9 -91 19 -105 22 -46 9 -198 17 -224
10 -60 -15 -11 -73 109 -131 89 -42 246 -105 263 -105 17 0 8 -13 -11 -16 -7
0 -52 -4 -102 -8 -49 -3 -106 -8 -125 -11 -19 -2 -57 -7 -85 -10 -27 -4 -63
-9 -80 -11 -16 -3 -43 -7 -58 -9 -110 -14 -235 -60 -237 -86 -1 -16 91 -44
180 -55 210 -24 923 -24 1157 1 22 2 82 7 131 10 49 3 98 7 108 9 11 2 51 7
89 11 229 23 410 73 389 107 -10 15 -84 45 -129 53 -53 8 -102 15 -145 20 -45
5 -264 19 -312 19 -21 0 -38 3 -38 6 0 3 17 12 38 20 97 35 250 117 287 154
12 12 35 51 35 60 0 2 -7 11 -15 19 -14 15 -90 16 -165 3 -58 -11 -249 -64
-340 -94 -47 -16 -91 -31 -99 -33 -12 -3 -15 11 -17 66 -9 240 -28 333 -78
386 -34 35 -43 35 -78 1z"/>
<path d="M1407 2004 c-1 -1 -40 -5 -87 -8 -72 -6 -156 -18 -268 -40 -46 -10
-158 -51 -202 -74 -174 -95 -244 -211 -234 -389 2 -43 6 -89 9 -103 3 -14 8
-38 11 -54 30 -166 145 -343 272 -419 51 -31 141 -67 182 -73 85 -13 248 -34
300 -38 161 -13 207 -17 230 -22 14 -3 39 -7 57 -9 45 -7 115 -39 137 -63 27
-31 30 -105 7 -150 -38 -75 -128 -142 -258 -193 -142 -54 -163 -67 -179 -104
-19 -47 -18 -81 6 -130 21 -44 52 -65 85 -58 29 5 55 10 100 18 22 4 48 11 58
16 9 5 17 7 17 4 0 -2 36 8 81 25 237 86 361 213 413 424 25 97 27 161 10 236
-37 162 -130 234 -342 266 -20 3 -48 7 -62 9 -14 2 -88 13 -164 25 -349 51
-498 120 -540 247 -35 109 10 221 111 276 46 24 126 51 188 62 132 23 437 23
568 0 15 -3 55 -10 89 -16 92 -16 145 -36 225 -86 84 -52 140 -64 178 -39 49
32 23 100 -75 196 -142 139 -367 232 -625 256 -60 6 -293 12 -298 8z"/>
</g>
</svg>
